<svg width="10" height="10" viewBox="0 0 10 10" fill="none" xmlns="http://www.w3.org/2000/svg">
<g clip-path="url(#clip0_292_298)">
<path d="M9.90008 2.23036L5.23036 6.89976C5.16364 6.96655 5.08688 7 5.00005 7C4.91322 7 4.83633 6.96655 4.76957 6.89976L0.100236 2.23036C0.0333416 2.16346 0 2.08671 0 1.99984C0 1.91301 0.0334469 1.83615 0.100236 1.7694L0.601132 1.26854C0.667921 1.20175 0.744782 1.16837 0.831611 1.16837C0.918439 1.16837 0.995301 1.20175 1.06209 1.26854L5.00005 5.20643L8.93816 1.26829C9.00491 1.2015 9.08181 1.16834 9.1685 1.16834C9.25546 1.16834 9.33233 1.20171 9.39908 1.26829L9.90005 1.76936C9.9668 1.83612 9.99997 1.91301 9.99997 1.99981C10 2.08671 9.96684 2.16357 9.90008 2.23036Z" fill="#E9B500"/>
</g>
<defs>
<clipPath id="clip0_292_298">
<rect width="10" height="10" rx="5" transform="matrix(1 0 0 -1 0 10)" fill="white"/>
</clipPath>
</defs>
</svg>
