<svg width="55" height="50" viewBox="0 0 55 50" fill="none" xmlns="http://www.w3.org/2000/svg">
<g clip-path="url(#clip0_208_29)">
<path d="M41.0721 22.3078L41.0712 22.3069C39.0903 20.7325 36.561 19.823 33.9152 19.7338V15.608C33.9132 15.1155 33.6634 14.6502 33.2353 14.3414L37.9677 7.7927L39.2325 6.27727C39.3469 6.13633 39.4077 5.96613 39.4058 5.79189C39.4067 5.77726 39.4152 5.76494 39.4152 5.75021L39.4123 5.7375C39.411 5.7169 39.4017 5.69784 39.3986 5.67733C39.3752 5.446 39.2409 5.23528 39.0307 5.09944L33.6484 0.242304C33.4765 0.0871215 33.2425 -9.61872e-05 32.9985 7.96064e-08H21.9985C21.7546 -9.61872e-05 21.5206 0.0871215 21.3486 0.242304L15.9663 5.09954C15.756 5.23537 15.6218 5.4462 15.5983 5.67743C15.5953 5.69793 15.5861 5.717 15.5847 5.73769L15.5818 5.7504C15.5818 5.76522 15.5904 5.77755 15.5911 5.79208C15.5892 5.96633 15.65 6.13653 15.7644 6.27746L16.994 7.74755L21.7615 14.3417C21.3334 14.6505 21.0837 15.1158 21.0818 15.6081V19.7339C17.4601 19.856 14.1175 21.5098 12.0729 24.1915C10.0281 26.8731 9.52341 30.2647 10.7125 33.3328L15.3808 45.4194C16.2762 47.7348 18.7099 49.2877 21.4443 49.2886H33.5526C36.287 49.2877 38.7208 47.7348 39.6161 45.4194L44.2845 33.3328C45.8079 29.414 44.539 25.0588 41.0721 22.3078ZM36.4642 6.85381L31.3228 13.9651H28.9217L32.672 6.57184H36.6992L36.4642 6.85381ZM32.0819 15.608V19.7154H22.9153V15.608H32.0819ZM32.6172 1.64299L36.2622 4.92886H32.6486L30.8152 1.64299H32.6172ZM26.2318 1.64299H27.4985H28.7653L30.5985 4.92886H24.3984L26.2318 1.64299ZM30.6581 6.57184L27.4985 12.8009L24.3389 6.57184H30.6581V6.57184ZM22.3799 1.64299H24.1819L22.3485 4.92886H18.7344L22.3799 1.64299ZM18.4974 6.80847L18.2999 6.57184H22.325L26.0753 13.9651H23.674L18.4974 6.80847ZM37.884 44.882C37.2442 46.5357 35.5058 47.6449 33.5526 47.6457H21.4443C19.4912 47.6449 17.7529 46.5357 17.113 44.8821L15.689 41.1952C19.4249 39.1472 24.0482 38.8847 28.0427 40.4935C31.1265 41.6909 34.4557 42.2965 37.8163 42.2716C38.1931 42.2716 38.55 42.2611 38.901 42.2486L37.884 44.882ZM42.5523 32.7953L39.5492 40.5706C35.8724 40.8327 32.1794 40.2912 28.7876 38.9925C24.3732 37.2071 19.2692 37.4382 15.0782 39.6135L12.4448 32.7952C11.1654 29.5036 12.2317 25.8455 15.1442 23.5352C16.9038 22.1322 19.1773 21.3576 21.5326 21.3584H33.4645C36.5751 21.3587 39.4935 22.7071 41.2977 24.9778C43.102 27.2484 43.5695 30.161 42.5523 32.7953Z" fill="#E9B500"/>
<path d="M40.3548 27.6269C40.0385 27.5489 39.6999 27.6282 39.4668 27.8349C39.2337 28.0417 39.1417 28.3443 39.2255 28.6284C39.5219 29.6486 39.474 30.7245 39.0876 31.7202L36.7535 37.7638C36.5878 38.1924 36.8413 38.6602 37.3197 38.8086C37.798 38.9571 38.32 38.7299 38.4856 38.3012L40.8198 32.2577C41.3257 30.9551 41.388 29.5472 40.9989 28.2129C40.9166 27.9284 40.671 27.7049 40.3548 27.6269Z" fill="#E9B500"/>
<path d="M38.3163 26.1586C38.6278 26.0662 38.8605 25.8317 38.9265 25.5435C38.9923 25.2554 38.8815 24.9577 38.6356 24.7629C37.2109 23.6277 35.3709 23.0008 33.4645 23.0012C32.9582 23.0012 32.5479 23.369 32.5479 23.8227C32.5479 24.2764 32.9582 24.6441 33.4645 24.6441C33.8267 24.6441 34.1882 24.6737 34.5445 24.7324C35.6124 24.9088 36.6059 25.3443 37.4172 25.9911C37.6619 26.1872 38.0048 26.251 38.3163 26.1586Z" fill="#E9B500"/>
</g>
<defs>
<clipPath id="clip0_208_29">
<rect width="55" height="49.2886" fill="white"/>
</clipPath>
</defs>
</svg>
