<svg xmlns="http://www.w3.org/2000/svg" version="1.1" xmlns:xlink="http://www.w3.org/1999/xlink" width="512" height="512" x="0" y="0" viewBox="0 0 110 90" style="enable-background:new 0 0 512 512" xml:space="preserve" class=""><g><path d="M35.7 19.3c-4.7 0-8.5-3.8-8.6-8.5 0-4.7 3.8-8.6 8.5-8.6s8.5 3.8 8.6 8.5c0 4.7-3.8 8.6-8.5 8.6zM52.4 31c-1.2-5.4-4.9-9.2-10.5-9.1H29.4c-5.6 0-10.2 4.3-10.7 9.8L17 51.8c-.1 1.7 1.2 3.3 2.9 3.4h.5c1.6-.2 2.8-1.5 2.9-3.1l1.5-18.7c.1-.5.2-1.6 1.2-1.6.3 0 .8.1.8 1.3V84c0 2.1 1.7 3.8 3.8 3.8s3.8-1.7 3.8-3.8V55.3c.8-.1 1.6-.1 2.5 0V84c0 2.1 1.7 3.8 3.8 3.8s3.8-1.7 3.8-3.8V33.1c0-1.2.5-1.3.8-1.3.9 0 1.1 1.3 1.2 1.8l4.1 18.3c.3 1.6 1.7 2.7 3.3 2.6 1.7-.1 3.1-1.6 3-3.3 0-.2 0-.3-.1-.5zM71.8 20.5c-4.7 0-8.5-3.8-8.6-8.5 0-4.7 3.8-8.6 8.5-8.6s8.5 3.8 8.6 8.5c.1 4.7-3.8 8.5-8.5 8.6z" fill="#e7a43e" opacity="1" data-original="#000000"></path><path d="M58.9 64.2c-.3 0-.6-.1-.8-.4s-.3-.7-.2-1c.9-4.1 2.8-12.6 4.4-19.4 1-4.1 1.8-7.6 2.1-9.2.1-.5-.2-1.1-.7-1.3H63.4c-.5 0-.9.3-1 .8l-.7 2.6-4.8 15.9c-.4 1.3-1.6 2.3-3 2.3-.4 0-.7-.1-1.1-.2-1.5-.6-2.3-2.2-1.9-3.7 1-3.8 2.3-7.7 3.5-11.6 1-3 1.9-5.9 2.7-8.5 1.1-4.4 5-7.5 9.6-7.5H77c4.5 0 8.5 3.1 9.6 7.4.7 2.2 1.4 4.6 2.2 7 1.4 4.3 2.8 8.8 4 13.1.4 1.6-.4 3.2-1.9 3.7-.3.1-.7.2-1.1.2-1.4 0-2.6-.9-3-2.3L82 36.2l-.7-2.6c-.1-.5-.5-.8-1-.8H80c-.5.2-.9.7-.7 1.3.4 1.6 1.2 5.1 2.1 9.2 1.6 6.8 3.6 15.3 4.4 19.4.1.3 0 .7-.2 1-.2.2-.5.4-.8.4z" fill="#e7a43e" opacity="1" data-original="#000000"></path><path d="M66.7 87.8c-2.1 0-3.8-1.7-3.8-3.8V62h7.6v22c.1 2.1-1.6 3.8-3.8 3.8zM76.8 87.8c-2.1 0-3.8-1.7-3.8-3.8V62h7.6v22c0 2.1-1.7 3.8-3.8 3.8z" fill="#e7a43e" opacity="1" data-original="#000000"></path></g></svg>