<svg id="Icons" height="512" viewBox="0 0 64 64" width="512" xmlns="http://www.w3.org/2000/svg"><path d="m9.62 41.07c-3.15-5.78.65-12.54 5.45-16.15 6.27-5.06 14.27-7.31 21.86-10.01s15.39-6.27 19.96-12.9c-.3 4.76-.59 9.52-.89 14.27-.33 5.33-.67 10.71-2.22 15.82-2.02 6.68-6.02 13.39-12.41 16.2-21.09 9.24-30.23-4.52-31.74-7.22z" fill="#66bb6a"/><path d="m49.19 17.5c-.43-.32-1.03-.23-1.38.18-1.82 2.21-4.06 3.99-6.27 5.44-.27-.78-.67-1.52-1.18-2.16-.38-.47-1.11-.46-1.51 0-.32.37-.32.91-.02 1.29.46.58.78 1.26.95 1.98-.75.45-1.48.87-2.17 1.24-1.4.76-2.85 1.5-4.25 2.21-.64.33-1.29.66-1.95 1-.41-1.68-1.25-3.26-2.41-4.54-.4-.44-1.11-.44-1.5.01-.33.38-.33.94 0 1.31 1.06 1.16 1.79 2.63 2.06 4.18-1.56.84-3.11 1.72-4.6 2.7-1.09.72-2.15 1.51-3.17 2.33-.1-2.24-.85-4.46-2.16-6.27-.35-.48-1.04-.56-1.49-.16-.38.34-.44.91-.15 1.32 1.42 1.96 2.05 4.51 1.7 6.9-6.94 6.38-11.78 15.08-13.42 24.36-.1.55.29 1.08.84 1.16.54.08 1.03-.29 1.13-.82 1.58-8.92 6.26-17.28 12.97-23.38 4.55-1.12 9.3-1.1 13.83.07.53.14 1.07-.15 1.22-.68.16-.54-.15-1.11-.7-1.25-3.66-.95-7.45-1.19-11.19-.74.55-.4 1.1-.8 1.67-1.17 1.79-1.18 3.71-2.23 5.62-3.24 2.91-.53 5.91-.42 8.77.34.52.14 1.06-.14 1.23-.65.17-.54-.13-1.12-.67-1.27-1.58-.42-3.19-.66-4.81-.73.79-.41 1.59-.82 2.37-1.25.92-.5 1.89-1.05 2.89-1.67 1.77-.35 3.59-.32 5.33.09.49.12.99-.14 1.14-.61l.04-.12c.17-.53-.16-1.07-.69-1.2-.85-.2-1.71-.32-2.57-.37 1.66-1.26 3.27-2.71 4.68-4.42.36-.44.26-1.09-.19-1.43z" fill="#00897b"/></svg>