<svg xmlns="http://www.w3.org/2000/svg" version="1.1" xmlns:xlink="http://www.w3.org/1999/xlink" width="512" height="512" x="0" y="0" viewBox="0 0 110 90" style="enable-background:new 0 0 512 512" xml:space="preserve" class=""><g><path d="M55 19c-4.7 0-8.6-3.8-8.6-8.5s3.8-8.6 8.6-8.6c4.7 0 8.5 3.8 8.5 8.5 0 4.8-3.8 8.6-8.5 8.6zM72 31.4c-.5-5.6-5.1-9.8-10.7-9.8H48.7c-5.6 0-10.2 4.3-10.7 9.8l-1.7 20.1c-.1 1.7 1.2 3.3 2.9 3.4h.5c1.6-.2 2.8-1.5 2.9-3.1l1.5-18.7c.1-.5.2-1.6 1.2-1.6.3 0 .8.1.8 1.3v51.5c-.1 2.1 1.5 3.9 3.6 4s3.9-1.5 4-3.6V55.6c.8-.1 1.6-.1 2.5 0v28.7c-.1 2.1 1.5 3.9 3.6 4s3.9-1.5 4-3.6V32.8c0-1.2.5-1.3.8-1.3.9 0 1.1 1.1 1.2 1.6l1.5 18.7c.1 1.6 1.3 2.9 2.9 3.1 1.7.1 3.3-1.1 3.4-2.9v-.5z" fill="#e7a43e" opacity="1" data-original="#000000" class=""></path></g></svg>