<?xml version="1.0" encoding="UTF-8" standalone="no"?>
<!-- Created with Inkscape (http://www.inkscape.org/) -->

<svg
   version="1.1"
   id="svg249"
   xml:space="preserve"
   width="682.66669"
   height="682.66669"
   viewBox="0 0 682.66669 682.66669"
   xmlns="http://www.w3.org/2000/svg"
   xmlns:svg="http://www.w3.org/2000/svg"><defs
     id="defs253"><clipPath
       clipPathUnits="userSpaceOnUse"
       id="clipPath263"><path
         d="M 0,512 H 512 V 0 H 0 Z"
         id="path261" /></clipPath></defs><g
     id="g255"
     transform="matrix(1.3333333,0,0,-1.3333333,0,682.66667)"><g
       id="g257"><g
         id="g259"
         clip-path="url(#clipPath263)"><g
           id="g265"
           transform="translate(496.5473,271.4527)"><path
             d="m 0,0 h -34.747 l 17.327,17.327 c 6.035,6.035 6.035,15.819 0,21.854 v 0 c -6.034,6.035 -15.819,6.035 -21.853,0 L -78.454,0 h -43.707 l 17.327,17.327 c 6.035,6.035 6.035,15.819 0,21.854 v 0 c -6.034,6.035 -15.818,6.035 -21.853,0 L -165.868,0 h -37.373 l 88.238,88.238 h 9.052 46.358 c 8.534,0 15.453,6.918 15.453,15.452 v 0.001 c 0,8.534 -6.919,15.452 -15.453,15.452 h -24.505 l 24.57,24.57 c 6.035,6.035 6.035,15.819 0,21.854 v 0 c -6.035,6.034 -15.819,6.034 -21.853,0 l -24.57,-24.57 v 24.504 c 0,8.535 -6.919,15.453 -15.453,15.453 v 0 c -8.534,0 -15.453,-6.918 -15.453,-15.453 v -46.358 -9.052 l -88.238,-88.238 v 37.374 l 6.401,6.4 32.78,32.781 c 6.035,6.034 6.035,15.818 0,21.853 v 0 c -6.034,6.035 -15.818,6.035 -21.853,0 l -17.328,-17.327 v 43.707 l 6.401,6.4 32.78,32.78 c 6.035,6.035 6.035,15.819 0,21.854 v 0 c -6.034,6.035 -15.818,6.035 -21.853,0 l -17.328,-17.328 v 34.748 c 0,8.534 -6.918,15.452 -15.452,15.452 v 0 c -8.535,0 -15.453,-6.918 -15.453,-15.452 v -34.748 l -17.327,17.328 c -6.035,6.035 -15.819,6.035 -21.854,0 v 0 c -6.035,-6.035 -6.035,-15.819 0,-21.854 l 32.78,-32.78 6.401,-6.4 v -43.707 l -17.327,17.327 c -6.035,6.035 -15.819,6.035 -21.854,0 v 0 c -6.035,-6.035 -6.035,-15.819 0,-21.853 l 32.78,-32.781 6.401,-6.4 V 21.853 l -88.238,88.238 v 9.052 46.358 c 0,8.535 -6.918,15.453 -15.453,15.453 v 0 c -8.534,0 -15.452,-6.918 -15.452,-15.453 v -24.504 l -24.57,24.57 c -6.035,6.034 -15.819,6.034 -21.854,0 v 0 c -6.034,-6.035 -6.034,-15.819 0,-21.854 l 24.57,-24.57 h -24.504 c -8.535,0 -15.453,-6.918 -15.453,-15.452 v -0.001 c 0,-8.534 6.918,-15.452 15.453,-15.452 h 46.358 9.052 L -277.853,0 h -37.374 l -39.181,39.181 c -6.034,6.035 -15.818,6.035 -21.853,0 v 0 c -6.035,-6.035 -6.035,-15.819 0,-21.854 L -358.934,0 h -43.707 l -39.18,39.181 c -6.035,6.035 -15.819,6.035 -21.854,0 v 0 c -6.035,-6.035 -6.035,-15.819 0,-21.854 L -446.347,0 h -34.748 c -8.534,0 -15.452,-6.918 -15.452,-15.453 v 0 c 0,-8.534 6.918,-15.452 15.452,-15.452 h 34.748 l -17.328,-17.328 c -6.035,-6.035 -6.035,-15.819 0,-21.853 v 0 c 6.035,-6.035 15.819,-6.035 21.854,0 l 39.18,39.181 h 43.707 l -17.327,-17.328 c -6.035,-6.035 -6.035,-15.819 0,-21.853 v 0 c 6.035,-6.035 15.819,-6.035 21.853,0 l 32.78,32.78 6.401,6.401 h 37.374 l -88.238,-88.238 h -9.052 -46.358 c -8.535,0 -15.453,-6.919 -15.453,-15.453 v 0 c 0,-8.534 6.918,-15.453 15.453,-15.453 h 24.504 l -24.57,-24.57 c -6.034,-6.034 -6.034,-15.818 0,-21.853 v 0 c 6.035,-6.035 15.819,-6.035 21.854,0 l 24.57,24.57 v -24.505 c 0,-8.534 6.918,-15.452 15.452,-15.452 v 0 c 8.535,0 15.453,6.918 15.453,15.452 v 46.358 9.052 L -256,-52.759 v -37.373 l -6.401,-6.401 -32.78,-32.78 c -6.035,-6.035 -6.035,-15.819 0,-21.853 v -0.001 c 6.035,-6.034 15.819,-6.034 21.854,0.001 l 17.327,17.327 v -43.707 l -6.401,-6.401 -32.78,-32.78 c -6.035,-6.035 -6.035,-15.819 0,-21.853 v 0 c 6.035,-6.035 15.819,-6.035 21.854,0 L -256,-221.253 V -256 c 0,-8.534 6.918,-15.453 15.453,-15.453 v 0 c 8.534,0 15.452,6.919 15.452,15.453 v 34.747 l 17.328,-17.327 c 6.035,-6.035 15.819,-6.035 21.853,0 v 0 c 6.035,6.034 6.035,15.818 0,21.853 l -32.78,32.78 -6.401,6.401 v 43.707 l 17.328,-17.327 c 6.035,-6.035 15.819,-6.035 21.853,-0.001 v 0.001 c 6.035,6.034 6.035,15.818 0,21.853 l -32.78,32.78 -6.401,6.401 v 37.373 l 88.238,-88.238 v -9.052 -46.358 c 0,-8.534 6.919,-15.452 15.453,-15.452 v 0 c 8.534,0 15.453,6.918 15.453,15.452 v 24.505 l 24.57,-24.57 c 6.034,-6.035 15.818,-6.035 21.853,0 v 0 c 6.035,6.035 6.035,15.819 0,21.853 l -24.57,24.57 h 24.505 c 8.534,0 15.453,6.919 15.453,15.453 v 0 c 0,8.534 -6.919,15.453 -15.453,15.453 h -46.358 -9.052 l -88.238,88.238 h 37.373 l 6.401,-6.401 32.78,-32.78 c 6.035,-6.035 15.819,-6.035 21.853,0 v 0 c 6.035,6.034 6.035,15.818 0,21.853 l -17.327,17.328 h 43.707 l 39.181,-39.181 c 6.034,-6.035 15.819,-6.035 21.853,0 v 0 c 6.035,6.034 6.035,15.818 0,21.853 l -17.327,17.328 H 0 c 8.534,0 15.453,6.918 15.453,15.452 v 0 C 15.453,-6.918 8.534,0 0,0"
             style="fill:#a2ddfd;fill-opacity:1;fill-rule:nonzero;stroke:none"
             id="path267" /></g><g
           id="g269"
           transform="translate(330.6794,240.5473)"><path
             d="m 0,0 c -8.534,0 -15.453,6.918 -15.453,15.453 0,8.534 6.919,15.452 15.453,15.452 h -37.373 l 26.426,26.427 c -6.034,-6.034 -15.818,-6.034 -21.853,0 v 0 c -6.034,6.035 -6.035,15.818 0,21.853 L -59.227,52.759 v 37.373 l 6.401,6.401 32.78,32.78 c 6.035,6.035 6.035,15.819 0,21.854 -6.035,6.034 -15.819,6.034 -21.853,0 l -17.328,-17.328 v 43.707 l 6.401,6.401 32.78,32.78 c 6.035,6.034 6.035,15.819 0,21.853 -6.035,6.035 -15.819,6.035 -21.853,0 L -59.227,221.253 V 256 c 0,8.534 -6.918,15.453 -15.452,15.453 -8.535,0 -15.453,-6.919 -15.453,-15.453 v -34.747 l -17.328,17.327 c -6.034,6.035 -15.818,6.035 -21.853,0 -6.035,-6.034 -6.035,-15.819 0,-21.853 l 32.78,-32.78 6.401,-6.401 v -43.707 l -17.328,17.328 c -6.034,6.034 -15.818,6.034 -21.853,0 -6.035,-6.035 -6.035,-15.819 0,-21.854 l 32.78,-32.78 6.401,-6.401 V 52.759 l -88.238,88.238 v 9.052 46.358 c 0,8.534 -6.918,15.453 -15.453,15.453 -8.534,0 -15.452,-6.919 -15.452,-15.453 v -24.505 l -24.57,24.57 c -6.035,6.035 -15.819,6.035 -21.854,0 v 0 c -6.035,-6.035 -6.035,-15.819 0,-21.853 l 24.57,-24.57 h -24.505 c -8.534,0 -15.452,-6.919 -15.452,-15.453 0,-8.534 6.918,-15.453 15.452,-15.453 h 46.359 9.052 l 88.237,-88.238 h -37.373 l -39.181,39.181 c -6.034,6.035 -15.819,6.035 -21.853,0 -6.035,-6.034 -6.035,-15.818 0,-21.853 l 17.327,-17.328 h -43.707 l -39.181,39.181 c -6.034,6.035 -15.818,6.035 -21.853,0 -6.035,-6.034 -6.035,-15.818 0,-21.853 l 17.328,-17.328 h -34.748 c -8.534,0 -15.452,-6.918 -15.452,-15.452 0,-8.535 6.918,-15.453 15.452,-15.453 h 34.748 l -17.328,-17.327 c -6.035,-6.035 -6.035,-15.819 0,-21.854 6.035,-6.035 15.819,-6.035 21.853,0 L -236.773,0 h 43.707 l -17.327,-17.327 c -6.035,-6.035 -6.035,-15.819 0,-21.854 v 0 c 6.034,-6.035 15.819,-6.034 21.853,0 l 32.78,32.78 6.401,6.401 h 37.373 l -88.237,-88.238 h -9.052 -46.359 c -8.534,0 -15.452,-6.918 -15.452,-15.452 0,-8.535 6.918,-15.453 15.452,-15.453 h 24.505 l -24.57,-24.57 c -6.035,-6.035 -6.035,-15.819 0,-21.854 v 0 c 6.035,-6.034 15.819,-6.034 21.854,0 l 24.57,24.57 v -24.504 c 0,-8.535 6.918,-15.453 15.452,-15.453 8.535,0 15.453,6.918 15.453,15.453 v 46.358 9.052 l 88.238,88.238 v -37.374 l -6.401,-6.4 -32.78,-32.781 c -6.035,-6.034 -6.035,-15.818 0,-21.853 v 0 c 6.035,-6.035 15.819,-6.035 21.853,0 l 17.328,17.327 v -43.706 l -6.401,-6.401 -32.78,-32.78 c -6.035,-6.035 -6.035,-15.819 0,-21.854 v 0 c 6.035,-6.035 15.819,-6.035 21.853,0 l 17.328,17.328 v -34.748 c 0,-8.534 6.918,-15.452 15.453,-15.452 8.534,0 15.452,6.918 15.452,15.452 v 34.748 l 17.328,-17.328 c 6.034,-6.035 15.818,-6.035 21.853,0 v 0 c 6.035,6.035 6.035,15.819 0,21.854 l -32.78,32.78 -6.401,6.401 v 43.706 l 17.328,-17.327 c 6.034,-6.035 15.818,-6.035 21.853,0 v 0 c 6.035,6.035 6.035,15.819 0,21.853 l -32.78,32.781 -6.401,6.4 v 37.374 L -32.8,-48.28 c -6.035,6.034 -6.035,15.818 0,21.853 v 0 c 6.035,6.034 15.818,6.035 21.852,0.001 L -37.373,0 Z"
             style="fill:#7acdf9;fill-opacity:1;fill-rule:nonzero;stroke:none"
             id="path271" /></g></g></g></g></svg>
