<svg id="Layer_1" viewBox="0 0 64 64" xmlns="http://www.w3.org/2000/svg" xmlns:xlink="http://www.w3.org/1999/xlink" data-name="Layer 1"><radialGradient id="radial-gradient" cx="23.45" cy="23.33" gradientUnits="userSpaceOnUse" r="27.58"><stop offset="0" stop-color="#fac533"/><stop offset="1" stop-color="#f7931e"/></radialGradient><radialGradient id="radial-gradient-2" cx="24" cy="23.64" fx="24" fy="23.64" gradientTransform="translate(.11 .36)" gradientUnits="userSpaceOnUse" r="28.13"><stop offset="0" stop-color="#feed01"/><stop offset=".23" stop-color="#fde500"/><stop offset=".59" stop-color="#facf00"/><stop offset="1" stop-color="#f7af00"/></radialGradient><radialGradient id="radial-gradient-3" cy="23.64" fy="23.64" r="28.13" xlink:href="#radial-gradient-2"/><circle cx="32" cy="32" fill="url(#radial-gradient)" r="16"/><path d="m32 13c-.55 0-1-.45-1-1v-10c0-.55.45-1 1-1s1 .45 1 1v10c0 .55-.45 1-1 1z" fill="url(#radial-gradient-2)"/><g fill="url(#radial-gradient-3)"><path d="m17.86 18.86c-.26 0-.51-.1-.71-.29l-7.07-7.07c-.39-.39-.39-1.02 0-1.41s1.02-.39 1.41 0l7.07 7.07c.39.39.39 1.02 0 1.41-.2.2-.45.29-.71.29z"/><path d="m12 33h-10c-.55 0-1-.45-1-1s.45-1 1-1h10c.55 0 1 .45 1 1s-.45 1-1 1z"/><path d="m10.79 54.21c-.26 0-.51-.1-.71-.29-.39-.39-.39-1.02 0-1.41l7.07-7.07c.39-.39 1.02-.39 1.41 0s.39 1.02 0 1.41l-7.07 7.07c-.2.2-.45.29-.71.29z"/><path d="m32 63c-.55 0-1-.45-1-1v-10c0-.55.45-1 1-1s1 .45 1 1v10c0 .55-.45 1-1 1z"/><path d="m53.21 54.21c-.26 0-.51-.1-.71-.29l-7.07-7.07c-.39-.39-.39-1.02 0-1.41s1.02-.39 1.41 0l7.07 7.07c.39.39.39 1.02 0 1.41-.2.2-.45.29-.71.29z"/><path d="m62 33h-10c-.55 0-1-.45-1-1s.45-1 1-1h10c.55 0 1 .45 1 1s-.45 1-1 1z"/><path d="m46.14 18.86c-.26 0-.51-.1-.71-.29-.39-.39-.39-1.02 0-1.41l7.07-7.07c.39-.39 1.02-.39 1.41 0s.39 1.02 0 1.41l-7.07 7.07c-.2.2-.45.29-.71.29z"/></g></svg>