<svg width="55" height="50" viewBox="0 0 55 50" fill="none" xmlns="http://www.w3.org/2000/svg">
<g clip-path="url(#clip0_207_2)">
<path d="M40.9926 22.3078L40.9916 22.3069C39.0107 20.7325 36.4814 19.823 33.8356 19.7338V15.608C33.8336 15.1155 33.5838 14.6502 33.1557 14.3414L37.8881 7.7927L39.153 6.27727C39.2674 6.13633 39.3282 5.96613 39.3262 5.79189C39.3271 5.77726 39.3356 5.76494 39.3356 5.75021L39.3327 5.7375C39.3314 5.7169 39.3221 5.69784 39.319 5.67733C39.2956 5.446 39.1613 5.23528 38.9511 5.09944L33.5688 0.242304C33.3969 0.0871215 33.1629 -9.61872e-05 32.9189 7.96064e-08H21.9189C21.675 -9.61872e-05 21.441 0.0871215 21.269 0.242304L15.8867 5.09954C15.6764 5.23537 15.5422 5.4462 15.5187 5.67743C15.5157 5.69793 15.5065 5.717 15.5051 5.73769L15.5022 5.7504C15.5022 5.76522 15.5108 5.77755 15.5115 5.79208C15.5096 5.96633 15.5704 6.13653 15.6848 6.27746L16.9144 7.74755L21.6819 14.3417C21.2538 14.6505 21.0041 15.1158 21.0022 15.6081V19.7339C17.3805 19.856 14.0379 21.5098 11.9933 24.1915C9.94849 26.8731 9.44382 30.2647 10.6329 33.3328L15.3012 45.4194C16.1966 47.7348 18.6303 49.2877 21.3648 49.2886H33.473C36.2074 49.2877 38.6412 47.7348 39.5366 45.4194L44.2049 33.3328C45.7284 29.414 44.4594 25.0588 40.9926 22.3078ZM36.3846 6.85381L31.2432 13.9651H28.8421L32.5924 6.57184H36.6196L36.3846 6.85381ZM32.0023 15.608V19.7154H22.8357V15.608H32.0023ZM32.5376 1.64298L36.1826 4.92886H32.569L30.7356 1.64298H32.5376ZM26.1522 1.64298H27.4189H28.6857L30.5189 4.92886H24.3189L26.1522 1.64298ZM30.5785 6.57184L27.4189 12.8009L24.2593 6.57184H30.5785ZM22.3003 1.64298H24.1023L22.2689 4.92886H18.6548L22.3003 1.64298ZM18.4178 6.80847L18.2203 6.57184H22.2454L25.9957 13.9651H23.5944L18.4178 6.80847ZM37.8044 44.882C37.1646 46.5357 35.4262 47.6449 33.473 47.6457H21.3648C19.4116 47.6449 17.6733 46.5357 17.0334 44.8821L15.6094 41.1952C19.3453 39.1472 23.9687 38.8847 27.9631 40.4935C31.0469 41.6909 34.3761 42.2965 37.7367 42.2716C38.1135 42.2716 38.4704 42.2611 38.8215 42.2486L37.8044 44.882ZM42.4727 32.7953L39.4696 40.5706C35.7928 40.8327 32.0998 40.2912 28.708 38.9925C24.2936 37.2071 19.1896 37.4382 14.9986 39.6135L12.3652 32.7952C11.0858 29.5036 12.1521 25.8455 15.0646 23.5352C16.8242 22.1322 19.0977 21.3576 21.4531 21.3584H33.3849C36.4956 21.3587 39.4139 22.7071 41.2181 24.9778C43.0224 27.2484 43.4899 30.161 42.4727 32.7953Z" fill="#E9D385"/>
<path d="M40.2752 27.6269C39.9589 27.5489 39.6204 27.6282 39.3872 27.8349C39.1541 28.0417 39.0621 28.3443 39.1459 28.6284C39.4424 29.6486 39.3944 30.7245 39.008 31.7202L36.6739 37.7638C36.5082 38.1924 36.7617 38.6602 37.2401 38.8086C37.7184 38.9571 38.2404 38.7299 38.4061 38.3012L40.7402 32.2577C41.2461 30.9551 41.3084 29.5472 40.9193 28.2129C40.837 27.9284 40.5914 27.7049 40.2752 27.6269Z" fill="#E9D385"/>
<path d="M38.2367 26.1586C38.5482 26.0662 38.7809 25.8317 38.8469 25.5435C38.9127 25.2554 38.8019 24.9577 38.556 24.7629C37.1313 23.6277 35.2913 23.0008 33.3849 23.0012C32.8786 23.0012 32.4683 23.369 32.4683 23.8227C32.4683 24.2764 32.8786 24.6441 33.3849 24.6441C33.7471 24.6441 34.1086 24.6737 34.4649 24.7324C35.5328 24.9088 36.5263 25.3443 37.3376 25.9911C37.5823 26.1872 37.9252 26.251 38.2367 26.1586Z" fill="#E9D385"/>
</g>
<defs>
<clipPath id="clip0_207_2">
<rect width="55" height="49.2886" fill="white"/>
</clipPath>
</defs>
</svg>
