<svg xmlns="http://www.w3.org/2000/svg" version="1.1" xmlns:xlink="http://www.w3.org/1999/xlink" width="512" height="512" x="0" y="0" viewBox="0 0 110 90" style="enable-background:new 0 0 512 512" xml:space="preserve" class=""><g><path d="M55.1 19c-4.7 0-8.6-3.8-8.6-8.5s3.8-8.6 8.5-8.6 8.6 3.8 8.6 8.5c0 4.8-3.8 8.6-8.5 8.6zM42.1 62.7c-.3 0-.6-.1-.8-.4s-.3-.6-.2-1c.9-4.1 2.9-12.6 4.4-19.4 1-4.1 1.8-7.6 2.1-9.2.1-.5-.2-1.1-.7-1.3H46.6c-.5 0-.9.3-1 .8l-.7 2.6-4.8 15.9c-.4 1.4-1.6 2.3-3 2.3-.4 0-.7-.1-1.1-.2-1.5-.6-2.4-2.2-1.9-3.7 1-3.8 2.3-7.7 3.5-11.5 1-3 1.9-5.9 2.6-8.5 1.1-4.4 5.1-7.5 9.6-7.4h10.5c4.5 0 8.5 3.1 9.6 7.4.6 2.2 1.4 4.6 2.2 7 1.4 4.3 2.8 8.8 4 13.1.4 1.6-.4 3.2-1.9 3.7-.5 0-.8.1-1.2.1-1.4 0-2.6-.9-3-2.3l-4.8-15.9-.7-2.6c-.1-.5-.5-.8-1-.8H63.2c-.5.2-.9.7-.7 1.3.4 1.6 1.2 5.1 2.1 9.2 1.6 6.8 3.6 15.3 4.4 19.4.1.4 0 .7-.2 1-.2.2-.5.4-.8.4z" fill="#e7a43e" opacity="1" data-original="#000000"></path><path d="M50 88.1c-2.1 0-3.8-1.7-3.8-3.8V60.6h7.6v23.8c0 2-1.7 3.7-3.8 3.7zM60 88.1c-2.1 0-3.8-1.7-3.8-3.8V60.6h7.6v23.8c0 2-1.7 3.7-3.8 3.7z" fill="#e7a43e" opacity="1" data-original="#000000"></path></g></svg>