<svg width="35" height="50" viewBox="0 0 35 50" fill="none" xmlns="http://www.w3.org/2000/svg">
<path d="M31.0721 22.3078L31.0712 22.3069C29.0903 20.7325 26.561 19.823 23.9152 19.7338V15.608C23.9132 15.1155 23.6634 14.6502 23.2353 14.3414L27.9677 7.7927L29.2325 6.27727C29.3469 6.13633 29.4077 5.96613 29.4058 5.79189C29.4067 5.77726 29.4152 5.76494 29.4152 5.75021L29.4123 5.7375C29.411 5.7169 29.4017 5.69784 29.3986 5.67733C29.3752 5.446 29.2409 5.23528 29.0307 5.09944L23.6484 0.242304C23.4765 0.0871215 23.2425 -9.61872e-05 22.9985 7.96064e-08H11.9985C11.7546 -9.61872e-05 11.5206 0.0871215 11.3486 0.242304L5.96625 5.09954C5.75603 5.23537 5.62175 5.4462 5.59833 5.67743C5.59533 5.69793 5.58609 5.717 5.58469 5.73769L5.58179 5.7504C5.58179 5.76522 5.59039 5.77755 5.59114 5.79208C5.58921 5.96633 5.65001 6.13653 5.76441 6.27746L6.99396 7.74755L11.7615 14.3417C11.3334 14.6505 11.0837 15.1158 11.0818 15.6081V19.7339C7.46006 19.856 4.11752 21.5098 2.07286 24.1915C0.0280811 26.8731 -0.476587 30.2647 0.712466 33.3328L5.38081 45.4194C6.27617 47.7348 8.70992 49.2877 11.4443 49.2886H23.5526C26.287 49.2877 28.7208 47.7348 29.6161 45.4194L34.2845 33.3328C35.8079 29.414 34.539 25.0588 31.0721 22.3078ZM26.4642 6.85381L21.3228 13.9651H18.9217L22.672 6.57184H26.6992L26.4642 6.85381ZM22.0819 15.608V19.7154H12.9153V15.608H22.0819ZM22.6172 1.64299L26.2622 4.92886H22.6486L20.8152 1.64299H22.6172ZM16.2318 1.64299H17.4985H18.7653L20.5985 4.92886H14.3984L16.2318 1.64299ZM20.6581 6.57184L17.4985 12.8009L14.3389 6.57184H20.6581V6.57184ZM12.3799 1.64299H14.1819L12.3485 4.92886H8.73441L12.3799 1.64299ZM8.49744 6.80847L8.29989 6.57184H12.325L16.0753 13.9651H13.674L8.49744 6.80847ZM27.884 44.882C27.2442 46.5357 25.5058 47.6449 23.5526 47.6457H11.4443C9.4912 47.6449 7.7529 46.5357 7.11298 44.8821L5.689 41.1952C9.42492 39.1472 14.0482 38.8847 18.0427 40.4935C21.1265 41.6909 24.4557 42.2965 27.8163 42.2716C28.1931 42.2716 28.55 42.2611 28.901 42.2486L27.884 44.882ZM32.5523 32.7953L29.5492 40.5706C25.8724 40.8327 22.1794 40.2912 18.7876 38.9925C14.3732 37.2071 9.26916 37.4382 5.0782 39.6135L2.44475 32.7952C1.16536 29.5036 2.23173 25.8455 5.14416 23.5352C6.90383 22.1322 9.17731 21.3576 11.5326 21.3584H23.4645C26.5751 21.3587 29.4935 22.7071 31.2977 24.9778C33.102 27.2484 33.5695 30.161 32.5523 32.7953Z" fill="#F1F2F2"/>
<path d="M30.3547 27.6269C30.0384 27.5489 29.6998 27.6282 29.4667 27.8349C29.2336 28.0417 29.1416 28.3443 29.2253 28.6284C29.5218 29.6486 29.4739 30.7245 29.0875 31.7202L26.7533 37.7638C26.5877 38.1924 26.8412 38.6602 27.3196 38.8086C27.7979 38.9571 28.3199 38.7299 28.4855 38.3012L30.8197 32.2577C31.3255 30.9551 31.3878 29.5472 30.9988 28.2129C30.9165 27.9284 30.6709 27.7049 30.3547 27.6269Z" fill="#F1F2F2"/>
<path d="M28.3163 26.1586C28.6278 26.0662 28.8605 25.8317 28.9265 25.5435C28.9923 25.2554 28.8815 24.9577 28.6356 24.7629C27.2109 23.6277 25.3709 23.0008 23.4645 23.0012C22.9582 23.0012 22.5479 23.369 22.5479 23.8227C22.5479 24.2764 22.9582 24.6441 23.4645 24.6441C23.8267 24.6441 24.1882 24.6737 24.5445 24.7324C25.6124 24.9088 26.6059 25.3443 27.4172 25.9911C27.6619 26.1872 28.0048 26.251 28.3163 26.1586Z" fill="#F1F2F2"/>
</svg>
